<?xml version="1.0" encoding="UTF-8"?>
<svg xmlns="http://www.w3.org/2000/svg" viewBox="0 0 512 512" width="512" height="512" role="img" aria-label="Sylang Raven Vectorized">
  <title>Sylang • Raven (Vectorized from PNG)</title>
  <g fill="currentColor" stroke="none" fill-rule="evenodd">
    <path d="M235.00,0.00 L234.00,1.00 L225.00,1.00 L224.00,2.00 L218.00,2.00 L217.00,3.00 L212.00,3.00 L211.00,4.00 L206.00,4.00 L205.00,5.00 L201.00,5.00 L200.00,6.00 L197.00,6.00 L196.00,7.00 L193.00,7.00 L192.00,8.00 L189.00,8.00 L188.00,9.00 L186.00,9.00 L185.00,10.00 L182.00,10.00 L181.00,11.00 L179.00,11.00 L178.00,12.00 L176.00,12.00 L175.00,13.00 L173.00,13.00 L172.00,14.00 L170.00,14.00 L169.00,15.00 L167.00,15.00 L166.00,16.00 L165.00,16.00 L164.00,17.00 L162.00,17.00 L161.00,18.00 L160.00,18.00 L159.00,19.00 L157.00,19.00 L156.00,20.00 L155.00,20.00 L154.00,21.00 L152.00,21.00 L151.00,22.00 L150.00,22.00 L149.00,23.00 L148.00,23.00 L147.00,24.00 L146.00,24.00 L145.00,25.00 L144.00,25.00 L143.00,26.00 L142.00,26.00 L141.00,27.00 L140.00,27.00 L139.00,28.00 L138.00,28.00 L137.00,29.00 L136.00,29.00 L135.00,30.00 L134.00,30.00 L133.00,31.00 L132.00,31.00 L131.00,32.00 L130.00,32.00 L128.00,34.00 L127.00,34.00 L126.00,35.00 L125.00,35.00 L123.00,37.00 L122.00,37.00 L121.00,38.00 L120.00,38.00 L118.00,40.00 L117.00,40.00 L115.00,42.00 L114.00,42.00 L112.00,44.00 L111.00,44.00 L109.00,46.00 L108.00,46.00 L106.00,48.00 L105.00,48.00 L102.00,51.00 L101.00,51.00 L98.00,54.00 L97.00,54.00 L92.00,59.00 L91.00,59.00 L85.00,65.00 L84.00,65.00 L64.00,85.00 L64.00,86.00 L58.00,92.00 L58.00,93.00 L55.00,96.00 L55.00,97.00 L51.00,101.00 L51.00,102.00 L48.00,105.00 L48.00,106.00 L46.00,108.00 L46.00,109.00 L44.00,111.00 L44.00,112.00 L42.00,114.00 L42.00,115.00 L40.00,117.00 L40.00,118.00 L38.00,120.00 L38.00,121.00 L36.00,123.00 L36.00,124.00 L35.00,125.00 L35.00,126.00 L34.00,127.00 L34.00,128.00 L32.00,130.00 L32.00,131.00 L31.00,132.00 L31.00,133.00 L30.00,134.00 L30.00,135.00 L29.00,136.00 L29.00,137.00 L28.00,138.00 L28.00,139.00 L27.00,140.00 L27.00,141.00 L26.00,142.00 L26.00,143.00 L25.00,144.00 L25.00,145.00 L24.00,146.00 L24.00,147.00 L23.00,148.00 L23.00,149.00 L22.00,150.00 L22.00,151.00 L21.00,152.00 L21.00,154.00 L20.00,155.00 L20.00,156.00 L19.00,157.00 L19.00,158.00 L18.00,159.00 L18.00,161.00 L17.00,162.00 L17.00,164.00 L16.00,165.00 L16.00,166.00 L15.00,167.00 L15.00,169.00 L14.00,170.00 L14.00,172.00 L13.00,173.00 L13.00,175.00 L12.00,176.00 L12.00,178.00 L11.00,179.00 L11.00,181.00 L10.00,182.00 L10.00,184.00 L9.00,185.00 L9.00,188.00 L8.00,189.00 L8.00,192.00 L7.00,193.00 L7.00,196.00 L6.00,197.00 L6.00,200.00 L5.00,201.00 L5.00,205.00 L4.00,206.00 L4.00,210.00 L3.00,211.00 L3.00,217.00 L2.00,218.00 L2.00,224.00 L1.00,225.00 L1.00,234.00 L0.00,235.00 L0.00,276.00 L1.00,277.00 L1.00,286.00 L2.00,287.00 L2.00,293.00 L3.00,294.00 L3.00,299.00 L4.00,300.00 L4.00,305.00 L5.00,306.00 L5.00,309.00 L6.00,310.00 L6.00,314.00 L7.00,315.00 L7.00,318.00 L8.00,319.00 L8.00,322.00 L9.00,323.00 L9.00,325.00 L10.00,326.00 L10.00,329.00 L11.00,330.00 L11.00,332.00 L12.00,333.00 L12.00,335.00 L13.00,336.00 L13.00,338.00 L14.00,339.00 L14.00,341.00 L15.00,342.00 L15.00,344.00 L16.00,345.00 L16.00,346.00 L17.00,347.00 L17.00,349.00 L18.00,350.00 L18.00,352.00 L19.00,353.00 L19.00,354.00 L20.00,355.00 L20.00,356.00 L21.00,357.00 L21.00,359.00 L22.00,360.00 L22.00,361.00 L23.00,362.00 L23.00,363.00 L24.00,364.00 L24.00,365.00 L25.00,366.00 L25.00,367.00 L26.00,368.00 L26.00,369.00 L27.00,370.00 L27.00,371.00 L28.00,372.00 L28.00,373.00 L29.00,374.00 L29.00,375.00 L30.00,376.00 L30.00,377.00 L31.00,378.00 L31.00,379.00 L32.00,380.00 L32.00,381.00 L34.00,383.00 L34.00,384.00 L35.00,385.00 L35.00,386.00 L37.00,388.00 L37.00,389.00 L38.00,390.00 L38.00,391.00 L40.00,393.00 L40.00,394.00 L42.00,396.00 L42.00,397.00 L44.00,399.00 L44.00,400.00 L46.00,402.00 L46.00,403.00 L48.00,405.00 L48.00,406.00 L51.00,409.00 L51.00,410.00 L55.00,414.00 L55.00,415.00 L59.00,419.00 L59.00,420.00 L65.00,426.00 L65.00,427.00 L84.00,446.00 L85.00,446.00 L91.00,452.00 L92.00,452.00 L96.00,456.00 L97.00,456.00 L101.00,460.00 L102.00,460.00 L105.00,463.00 L106.00,463.00 L108.00,465.00 L109.00,465.00 L111.00,467.00 L112.00,467.00 L114.00,469.00 L115.00,469.00 L117.00,471.00 L118.00,471.00 L120.00,473.00 L121.00,473.00 L122.00,474.00 L123.00,474.00 L125.00,476.00 L126.00,476.00 L127.00,477.00 L128.00,477.00 L130.00,479.00 L131.00,479.00 L132.00,480.00 L133.00,480.00 L134.00,481.00 L135.00,481.00 L136.00,482.00 L137.00,482.00 L138.00,483.00 L139.00,483.00 L140.00,484.00 L141.00,484.00 L142.00,485.00 L143.00,485.00 L144.00,486.00 L145.00,486.00 L146.00,487.00 L147.00,487.00 L148.00,488.00 L149.00,488.00 L150.00,489.00 L151.00,489.00 L152.00,490.00 L154.00,490.00 L155.00,491.00 L156.00,491.00 L157.00,492.00 L158.00,492.00 L159.00,493.00 L161.00,493.00 L162.00,494.00 L164.00,494.00 L165.00,495.00 L166.00,495.00 L167.00,496.00 L169.00,496.00 L170.00,497.00 L172.00,497.00 L173.00,498.00 L175.00,498.00 L176.00,499.00 L178.00,499.00 L179.00,500.00 L181.00,500.00 L182.00,501.00 L185.00,501.00 L186.00,502.00 L188.00,502.00 L189.00,503.00 L192.00,503.00 L193.00,504.00 L196.00,504.00 L197.00,505.00 L201.00,505.00 L202.00,506.00 L205.00,506.00 L206.00,507.00 L211.00,507.00 L212.00,508.00 L217.00,508.00 L218.00,509.00 L224.00,509.00 L225.00,510.00 L234.00,510.00 L235.00,511.00 L276.00,511.00 L277.00,510.00 L286.00,510.00 L287.00,509.00 L293.00,509.00 L294.00,508.00 L299.00,508.00 L300.00,507.00 L305.00,507.00 L306.00,506.00 L310.00,506.00 L311.00,505.00 L314.00,505.00 L315.00,504.00 L318.00,504.00 L319.00,503.00 L322.00,503.00 L323.00,502.00 L325.00,502.00 L326.00,501.00 L329.00,501.00 L330.00,500.00 L332.00,500.00 L333.00,499.00 L335.00,499.00 L336.00,498.00 L338.00,498.00 L339.00,497.00 L341.00,497.00 L342.00,496.00 L344.00,496.00 L345.00,495.00 L346.00,495.00 L347.00,494.00 L349.00,494.00 L350.00,493.00 L352.00,493.00 L353.00,492.00 L354.00,492.00 L355.00,491.00 L356.00,491.00 L357.00,490.00 L359.00,490.00 L360.00,489.00 L361.00,489.00 L362.00,488.00 L363.00,488.00 L364.00,487.00 L365.00,487.00 L366.00,486.00 L367.00,486.00 L368.00,485.00 L369.00,485.00 L370.00,484.00 L371.00,484.00 L372.00,483.00 L373.00,483.00 L374.00,482.00 L375.00,482.00 L376.00,481.00 L377.00,481.00 L378.00,480.00 L379.00,480.00 L380.00,479.00 L381.00,479.00 L383.00,477.00 L384.00,477.00 L385.00,476.00 L386.00,476.00 L388.00,474.00 L389.00,474.00 L390.00,473.00 L391.00,473.00 L393.00,471.00 L394.00,471.00 L396.00,469.00 L397.00,469.00 L399.00,467.00 L400.00,467.00 L402.00,465.00 L403.00,465.00 L405.00,463.00 L406.00,463.00 L409.00,460.00 L410.00,460.00 L414.00,456.00 L415.00,456.00 L419.00,452.00 L420.00,452.00 L426.00,446.00 L427.00,446.00 L446.00,427.00 L446.00,426.00 L452.00,420.00 L452.00,419.00 L457.00,414.00 L457.00,413.00 L460.00,410.00 L460.00,409.00 L463.00,406.00 L463.00,405.00 L465.00,403.00 L465.00,402.00 L467.00,400.00 L467.00,399.00 L469.00,397.00 L469.00,396.00 L471.00,394.00 L471.00,393.00 L473.00,391.00 L473.00,390.00 L474.00,389.00 L474.00,388.00 L476.00,386.00 L476.00,385.00 L477.00,384.00 L477.00,383.00 L479.00,381.00 L479.00,380.00 L480.00,379.00 L480.00,378.00 L481.00,377.00 L481.00,376.00 L482.00,375.00 L482.00,374.00 L483.00,373.00 L483.00,372.00 L484.00,371.00 L484.00,370.00 L485.00,369.00 L485.00,368.00 L486.00,367.00 L486.00,366.00 L487.00,365.00 L487.00,364.00 L488.00,363.00 L488.00,362.00 L489.00,361.00 L489.00,360.00 L490.00,359.00 L490.00,357.00 L491.00,356.00 L491.00,355.00 L492.00,354.00 L492.00,352.00 L493.00,351.00 L493.00,350.00 L494.00,349.00 L494.00,347.00 L495.00,346.00 L495.00,345.00 L496.00,344.00 L496.00,342.00 L497.00,341.00 L497.00,339.00 L498.00,338.00 L498.00,336.00 L499.00,335.00 L499.00,333.00 L500.00,332.00 L500.00,330.00 L501.00,329.00 L501.00,326.00 L502.00,325.00 L502.00,323.00 L503.00,322.00 L503.00,319.00 L504.00,318.00 L504.00,315.00 L505.00,314.00 L505.00,311.00 L506.00,310.00 L506.00,306.00 L507.00,305.00 L507.00,300.00 L508.00,299.00 L508.00,294.00 L509.00,293.00 L509.00,287.00 L510.00,286.00 L510.00,277.00 L511.00,276.00 L511.00,235.00 L510.00,234.00 L510.00,225.00 L509.00,224.00 L509.00,217.00 L508.00,216.00 L508.00,211.00 L507.00,210.00 L507.00,206.00 L506.00,205.00 L506.00,201.00 L505.00,200.00 L505.00,197.00 L504.00,196.00 L504.00,193.00 L503.00,192.00 L503.00,189.00 L502.00,188.00 L502.00,185.00 L501.00,184.00 L501.00,182.00 L500.00,181.00 L500.00,179.00 L499.00,178.00 L499.00,176.00 L498.00,175.00 L498.00,173.00 L497.00,172.00 L497.00,170.00 L496.00,169.00 L496.00,167.00 L495.00,166.00 L495.00,164.00 L494.00,163.00 L494.00,162.00 L493.00,161.00 L493.00,159.00 L492.00,158.00 L492.00,157.00 L491.00,156.00 L491.00,155.00 L490.00,154.00 L490.00,152.00 L489.00,151.00 L489.00,150.00 L488.00,149.00 L488.00,148.00 L487.00,147.00 L487.00,146.00 L486.00,145.00 L486.00,144.00 L485.00,143.00 L485.00,142.00 L484.00,141.00 L484.00,140.00 L483.00,139.00 L483.00,138.00 L482.00,137.00 L482.00,136.00 L481.00,135.00 L481.00,134.00 L480.00,133.00 L480.00,132.00 L479.00,131.00 L479.00,130.00 L477.00,128.00 L477.00,127.00 L476.00,126.00 L476.00,125.00 L475.00,124.00 L475.00,123.00 L473.00,121.00 L473.00,120.00 L471.00,118.00 L471.00,117.00 L469.00,115.00 L469.00,114.00 L467.00,112.00 L467.00,111.00 L465.00,109.00 L465.00,108.00 L463.00,106.00 L463.00,105.00 L460.00,102.00 L460.00,101.00 L456.00,97.00 L456.00,96.00 L452.00,92.00 L452.00,91.00 L446.00,85.00 L446.00,84.00 L427.00,65.00 L426.00,65.00 L420.00,59.00 L419.00,59.00 L415.00,55.00 L414.00,55.00 L410.00,51.00 L409.00,51.00 L406.00,48.00 L405.00,48.00 L403.00,46.00 L402.00,46.00 L400.00,44.00 L399.00,44.00 L397.00,42.00 L396.00,42.00 L394.00,40.00 L393.00,40.00 L391.00,38.00 L390.00,38.00 L388.00,36.00 L387.00,36.00 L386.00,35.00 L385.00,35.00 L384.00,34.00 L383.00,34.00 L381.00,32.00 L380.00,32.00 L379.00,31.00 L378.00,31.00 L377.00,30.00 L376.00,30.00 L375.00,29.00 L374.00,29.00 L373.00,28.00 L372.00,28.00 L371.00,27.00 L370.00,27.00 L369.00,26.00 L368.00,26.00 L367.00,25.00 L366.00,25.00 L365.00,24.00 L364.00,24.00 L363.00,23.00 L362.00,23.00 L361.00,22.00 L360.00,22.00 L359.00,21.00 L357.00,21.00 L356.00,20.00 L355.00,20.00 L354.00,19.00 L353.00,19.00 L352.00,18.00 L350.00,18.00 L349.00,17.00 L348.00,17.00 L347.00,16.00 L345.00,16.00 L344.00,15.00 L342.00,15.00 L341.00,14.00 L339.00,14.00 L338.00,13.00 L336.00,13.00 L335.00,12.00 L333.00,12.00 L332.00,11.00 L330.00,11.00 L329.00,10.00 L327.00,10.00 L326.00,9.00 L323.00,9.00 L322.00,8.00 L319.00,8.00 L318.00,7.00 L315.00,7.00 L314.00,6.00 L311.00,6.00 L310.00,5.00 L306.00,5.00 L305.00,4.00 L301.00,4.00 L300.00,3.00 L295.00,3.00 L294.00,2.00 L287.00,2.00 L286.00,1.00 L277.00,1.00 L276.00,0.00 Z M284.00,122.00 L285.00,121.00 L313.00,121.00 L314.00,122.00 L318.00,122.00 L319.00,123.00 L322.00,123.00 L323.00,124.00 L325.00,124.00 L326.00,125.00 L327.00,125.00 L328.00,126.00 L330.00,126.00 L331.00,127.00 L332.00,127.00 L333.00,128.00 L334.00,128.00 L336.00,130.00 L337.00,130.00 L339.00,132.00 L340.00,132.00 L343.00,135.00 L344.00,135.00 L351.00,142.00 L352.00,142.00 L353.00,143.00 L360.00,143.00 L361.00,144.00 L368.00,144.00 L369.00,145.00 L373.00,145.00 L374.00,146.00 L377.00,146.00 L378.00,147.00 L380.00,147.00 L381.00,148.00 L383.00,148.00 L384.00,149.00 L386.00,149.00 L387.00,150.00 L388.00,150.00 L389.00,151.00 L390.00,151.00 L391.00,152.00 L392.00,152.00 L393.00,153.00 L394.00,153.00 L395.00,154.00 L396.00,154.00 L398.00,156.00 L399.00,156.00 L402.00,159.00 L403.00,159.00 L408.00,164.00 L408.00,165.00 L411.00,168.00 L411.00,169.00 L413.00,171.00 L413.00,172.00 L414.00,173.00 L414.00,174.00 L415.00,175.00 L415.00,180.00 L411.00,184.00 L409.00,184.00 L408.00,185.00 L404.00,185.00 L403.00,186.00 L399.00,186.00 L398.00,187.00 L395.00,187.00 L394.00,188.00 L390.00,188.00 L389.00,189.00 L385.00,189.00 L384.00,190.00 L380.00,190.00 L379.00,191.00 L375.00,191.00 L374.00,192.00 L370.00,192.00 L369.00,193.00 L365.00,193.00 L364.00,194.00 L362.00,194.00 L360.00,196.00 L359.00,196.00 L357.00,198.00 L356.00,198.00 L345.00,209.00 L345.00,210.00 L343.00,212.00 L343.00,213.00 L342.00,214.00 L342.00,215.00 L340.00,217.00 L340.00,218.00 L339.00,219.00 L339.00,221.00 L338.00,222.00 L338.00,223.00 L337.00,224.00 L337.00,226.00 L336.00,227.00 L336.00,228.00 L335.00,229.00 L335.00,230.00 L334.00,231.00 L334.00,232.00 L333.00,233.00 L333.00,234.00 L332.00,235.00 L332.00,237.00 L331.00,238.00 L331.00,239.00 L330.00,240.00 L330.00,242.00 L329.00,243.00 L329.00,246.00 L328.00,247.00 L328.00,250.00 L327.00,251.00 L327.00,258.00 L326.00,259.00 L326.00,280.00 L325.00,281.00 L325.00,294.00 L324.00,295.00 L324.00,304.00 L323.00,305.00 L323.00,312.00 L322.00,313.00 L322.00,319.00 L321.00,320.00 L321.00,324.00 L320.00,325.00 L320.00,329.00 L319.00,330.00 L319.00,333.00 L318.00,334.00 L318.00,337.00 L317.00,338.00 L317.00,340.00 L316.00,341.00 L316.00,342.00 L315.00,343.00 L315.00,345.00 L314.00,346.00 L314.00,347.00 L312.00,349.00 L312.00,351.00 L311.00,352.00 L311.00,353.00 L310.00,354.00 L310.00,355.00 L309.00,356.00 L309.00,357.00 L308.00,358.00 L308.00,359.00 L307.00,360.00 L307.00,361.00 L306.00,362.00 L306.00,363.00 L305.00,364.00 L305.00,365.00 L303.00,367.00 L303.00,368.00 L302.00,369.00 L302.00,370.00 L300.00,372.00 L300.00,373.00 L298.00,375.00 L298.00,376.00 L294.00,380.00 L294.00,381.00 L289.00,386.00 L288.00,386.00 L286.00,388.00 L285.00,388.00 L283.00,390.00 L279.00,390.00 L276.00,387.00 L276.00,386.00 L275.00,385.00 L275.00,384.00 L276.00,383.00 L276.00,382.00 L288.00,370.00 L288.00,369.00 L290.00,367.00 L290.00,366.00 L292.00,364.00 L292.00,363.00 L293.00,362.00 L293.00,361.00 L295.00,359.00 L295.00,358.00 L296.00,357.00 L296.00,356.00 L297.00,355.00 L297.00,354.00 L298.00,353.00 L298.00,352.00 L299.00,351.00 L299.00,350.00 L300.00,349.00 L300.00,348.00 L301.00,347.00 L301.00,346.00 L302.00,345.00 L302.00,344.00 L303.00,343.00 L303.00,342.00 L304.00,341.00 L304.00,340.00 L305.00,339.00 L305.00,337.00 L306.00,336.00 L306.00,334.00 L307.00,333.00 L307.00,331.00 L308.00,330.00 L308.00,326.00 L309.00,325.00 L309.00,321.00 L310.00,320.00 L310.00,315.00 L311.00,314.00 L311.00,308.00 L312.00,307.00 L312.00,298.00 L313.00,297.00 L313.00,286.00 L314.00,285.00 L314.00,267.00 L315.00,266.00 L315.00,252.00 L316.00,251.00 L316.00,247.00 L317.00,246.00 L317.00,243.00 L318.00,242.00 L318.00,240.00 L319.00,239.00 L319.00,237.00 L320.00,236.00 L320.00,234.00 L321.00,233.00 L321.00,232.00 L322.00,231.00 L322.00,229.00 L323.00,228.00 L323.00,227.00 L324.00,226.00 L324.00,225.00 L326.00,223.00 L326.00,222.00 L327.00,221.00 L327.00,219.00 L328.00,218.00 L328.00,217.00 L329.00,216.00 L329.00,214.00 L330.00,213.00 L330.00,212.00 L332.00,210.00 L332.00,209.00 L333.00,208.00 L333.00,207.00 L335.00,205.00 L335.00,204.00 L337.00,202.00 L337.00,201.00 L348.00,190.00 L348.00,189.00 L347.00,189.00 L346.00,188.00 L345.00,188.00 L344.00,187.00 L343.00,187.00 L342.00,186.00 L340.00,186.00 L339.00,185.00 L338.00,185.00 L337.00,184.00 L336.00,184.00 L335.00,183.00 L333.00,183.00 L332.00,182.00 L331.00,182.00 L330.00,181.00 L329.00,181.00 L328.00,180.00 L327.00,180.00 L324.00,177.00 L324.00,176.00 L323.00,175.00 L323.00,173.00 L324.00,172.00 L324.00,171.00 L327.00,168.00 L327.00,167.00 L329.00,165.00 L329.00,164.00 L332.00,161.00 L332.00,160.00 L334.00,158.00 L334.00,157.00 L337.00,154.00 L337.00,153.00 L340.00,150.00 L340.00,149.00 L341.00,148.00 L337.00,144.00 L336.00,144.00 L333.00,141.00 L332.00,141.00 L330.00,139.00 L329.00,139.00 L328.00,138.00 L327.00,138.00 L326.00,137.00 L325.00,137.00 L324.00,136.00 L322.00,136.00 L321.00,135.00 L319.00,135.00 L318.00,134.00 L315.00,134.00 L314.00,133.00 L309.00,133.00 L308.00,132.00 L290.00,132.00 L289.00,133.00 L284.00,133.00 L283.00,134.00 L280.00,134.00 L279.00,135.00 L277.00,135.00 L276.00,136.00 L274.00,136.00 L273.00,137.00 L272.00,137.00 L271.00,138.00 L269.00,138.00 L268.00,139.00 L267.00,139.00 L265.00,141.00 L264.00,141.00 L262.00,143.00 L261.00,143.00 L258.00,146.00 L258.00,147.00 L244.00,161.00 L244.00,162.00 L241.00,165.00 L241.00,166.00 L238.00,169.00 L238.00,170.00 L237.00,171.00 L237.00,172.00 L235.00,174.00 L235.00,175.00 L234.00,176.00 L234.00,177.00 L232.00,179.00 L232.00,180.00 L231.00,181.00 L231.00,182.00 L230.00,183.00 L230.00,184.00 L229.00,185.00 L229.00,186.00 L228.00,187.00 L228.00,188.00 L227.00,189.00 L227.00,190.00 L225.00,192.00 L225.00,193.00 L223.00,195.00 L223.00,196.00 L221.00,198.00 L221.00,199.00 L216.00,204.00 L216.00,205.00 L208.00,213.00 L207.00,213.00 L202.00,218.00 L201.00,218.00 L200.00,219.00 L203.00,219.00 L204.00,220.00 L211.00,220.00 L212.00,221.00 L214.00,221.00 L215.00,222.00 L217.00,222.00 L218.00,223.00 L220.00,223.00 L221.00,224.00 L222.00,224.00 L223.00,225.00 L224.00,225.00 L225.00,226.00 L226.00,226.00 L229.00,229.00 L230.00,229.00 L239.00,238.00 L239.00,239.00 L241.00,241.00 L241.00,242.00 L242.00,243.00 L242.00,244.00 L243.00,245.00 L243.00,246.00 L244.00,247.00 L244.00,248.00 L245.00,249.00 L245.00,251.00 L246.00,252.00 L246.00,255.00 L247.00,256.00 L247.00,273.00 L246.00,274.00 L246.00,277.00 L245.00,278.00 L245.00,280.00 L244.00,281.00 L244.00,282.00 L243.00,283.00 L243.00,284.00 L242.00,285.00 L242.00,286.00 L241.00,287.00 L241.00,288.00 L240.00,289.00 L240.00,290.00 L238.00,292.00 L238.00,293.00 L237.00,294.00 L237.00,295.00 L235.00,297.00 L235.00,298.00 L232.00,301.00 L232.00,302.00 L229.00,305.00 L229.00,306.00 L212.00,323.00 L211.00,323.00 L207.00,327.00 L206.00,327.00 L204.00,329.00 L203.00,329.00 L201.00,331.00 L200.00,331.00 L198.00,333.00 L197.00,333.00 L196.00,334.00 L195.00,334.00 L193.00,336.00 L192.00,336.00 L191.00,337.00 L190.00,337.00 L189.00,338.00 L188.00,338.00 L187.00,339.00 L186.00,339.00 L185.00,340.00 L183.00,340.00 L182.00,341.00 L181.00,341.00 L180.00,340.00 L179.00,340.00 L177.00,338.00 L177.00,337.00 L176.00,336.00 L176.00,334.00 L177.00,333.00 L177.00,332.00 L179.00,330.00 L180.00,330.00 L181.00,329.00 L182.00,329.00 L183.00,328.00 L184.00,328.00 L185.00,327.00 L186.00,327.00 L188.00,325.00 L189.00,325.00 L190.00,324.00 L191.00,324.00 L193.00,322.00 L194.00,322.00 L195.00,321.00 L196.00,321.00 L199.00,318.00 L200.00,318.00 L203.00,315.00 L204.00,315.00 L220.00,299.00 L220.00,298.00 L223.00,295.00 L223.00,294.00 L225.00,292.00 L225.00,291.00 L227.00,289.00 L227.00,288.00 L229.00,286.00 L229.00,285.00 L230.00,284.00 L230.00,283.00 L232.00,281.00 L232.00,280.00 L233.00,279.00 L233.00,278.00 L234.00,277.00 L234.00,275.00 L235.00,274.00 L235.00,270.00 L236.00,269.00 L236.00,261.00 L235.00,260.00 L235.00,256.00 L234.00,255.00 L234.00,253.00 L233.00,252.00 L233.00,251.00 L232.00,250.00 L232.00,249.00 L231.00,248.00 L231.00,247.00 L229.00,245.00 L229.00,244.00 L222.00,237.00 L221.00,237.00 L219.00,235.00 L218.00,235.00 L217.00,234.00 L216.00,234.00 L215.00,233.00 L213.00,233.00 L212.00,232.00 L209.00,232.00 L208.00,231.00 L190.00,231.00 L189.00,232.00 L179.00,232.00 L178.00,233.00 L177.00,233.00 L176.00,234.00 L175.00,234.00 L173.00,236.00 L172.00,236.00 L171.00,237.00 L170.00,237.00 L168.00,239.00 L167.00,239.00 L165.00,241.00 L164.00,241.00 L162.00,243.00 L161.00,243.00 L159.00,245.00 L158.00,245.00 L156.00,247.00 L155.00,247.00 L153.00,249.00 L152.00,249.00 L150.00,251.00 L149.00,251.00 L147.00,253.00 L146.00,253.00 L143.00,256.00 L142.00,256.00 L140.00,258.00 L139.00,258.00 L136.00,261.00 L135.00,261.00 L131.00,265.00 L130.00,265.00 L125.00,270.00 L124.00,270.00 L110.00,284.00 L110.00,285.00 L107.00,288.00 L107.00,289.00 L105.00,291.00 L104.00,291.00 L103.00,292.00 L98.00,292.00 L96.00,290.00 L96.00,289.00 L95.00,288.00 L95.00,286.00 L96.00,285.00 L96.00,284.00 L98.00,282.00 L98.00,281.00 L116.00,263.00 L117.00,263.00 L122.00,258.00 L123.00,258.00 L126.00,255.00 L127.00,255.00 L131.00,251.00 L132.00,251.00 L135.00,248.00 L136.00,248.00 L138.00,246.00 L139.00,246.00 L142.00,243.00 L143.00,243.00 L145.00,241.00 L146.00,241.00 L148.00,239.00 L149.00,239.00 L152.00,236.00 L153.00,236.00 L155.00,234.00 L156.00,234.00 L158.00,232.00 L159.00,232.00 L161.00,230.00 L162.00,230.00 L164.00,228.00 L165.00,228.00 L167.00,226.00 L168.00,226.00 L170.00,224.00 L171.00,224.00 L173.00,222.00 L174.00,222.00 L176.00,220.00 L177.00,220.00 L178.00,219.00 L179.00,219.00 L180.00,218.00 L181.00,218.00 L183.00,216.00 L184.00,216.00 L185.00,215.00 L186.00,215.00 L187.00,214.00 L188.00,214.00 L190.00,212.00 L191.00,212.00 L194.00,209.00 L195.00,209.00 L200.00,204.00 L201.00,204.00 L207.00,198.00 L207.00,197.00 L211.00,193.00 L211.00,192.00 L214.00,189.00 L214.00,188.00 L216.00,186.00 L216.00,185.00 L217.00,184.00 L217.00,183.00 L219.00,181.00 L219.00,180.00 L220.00,179.00 L220.00,178.00 L221.00,177.00 L221.00,176.00 L222.00,175.00 L222.00,174.00 L223.00,173.00 L223.00,172.00 L224.00,171.00 L224.00,170.00 L226.00,168.00 L226.00,167.00 L227.00,166.00 L227.00,165.00 L229.00,163.00 L229.00,162.00 L232.00,159.00 L232.00,158.00 L235.00,155.00 L235.00,154.00 L243.00,146.00 L243.00,145.00 L245.00,143.00 L246.00,143.00 L249.00,140.00 L249.00,139.00 L255.00,133.00 L256.00,133.00 L258.00,131.00 L259.00,131.00 L261.00,129.00 L262.00,129.00 L263.00,128.00 L264.00,128.00 L265.00,127.00 L267.00,127.00 L268.00,126.00 L269.00,126.00 L270.00,125.00 L272.00,125.00 L273.00,124.00 L276.00,124.00 L277.00,123.00 L279.00,123.00 L280.00,122.00 Z M351.00,154.00 L349.00,156.00 L349.00,157.00 L346.00,160.00 L346.00,161.00 L344.00,163.00 L344.00,164.00 L341.00,167.00 L341.00,168.00 L342.00,168.00 L343.00,167.00 L387.00,167.00 L388.00,168.00 L395.00,168.00 L392.00,165.00 L391.00,165.00 L390.00,164.00 L389.00,164.00 L388.00,163.00 L387.00,163.00 L386.00,162.00 L385.00,162.00 L384.00,161.00 L383.00,161.00 L382.00,160.00 L380.00,160.00 L379.00,159.00 L377.00,159.00 L376.00,158.00 L374.00,158.00 L373.00,157.00 L369.00,157.00 L368.00,156.00 L364.00,156.00 L363.00,155.00 L357.00,155.00 L356.00,154.00 Z M289.00,151.00 L294.00,151.00 L296.00,153.00 L296.00,154.00 L297.00,155.00 L297.00,158.00 L296.00,159.00 L296.00,160.00 L295.00,161.00 L294.00,161.00 L293.00,162.00 L289.00,162.00 L286.00,159.00 L286.00,158.00 L285.00,157.00 L285.00,156.00 L286.00,155.00 L286.00,154.00 Z M361.00,178.00 L360.00,179.00 L353.00,179.00 L354.00,179.00 L355.00,180.00 L357.00,180.00 L358.00,181.00 L359.00,181.00 L360.00,182.00 L365.00,182.00 L366.00,181.00 L370.00,181.00 L371.00,180.00 L375.00,180.00 L376.00,179.00 L380.00,179.00 L379.00,179.00 L378.00,178.00 Z" />
  </g>
</svg>
